<svg width="172" height="50" viewBox="0 0 172 50" fill="none" xmlns="http://www.w3.org/2000/svg">
<path d="M80.9428 44.5368C80.8812 44.3224 80.7893 44.102 80.6595 43.8633C80.529 43.6228 80.3516 43.4058 80.134 43.2175C79.9091 43.023 79.6266 42.8616 79.2965 42.7392C78.9648 42.616 78.5559 42.5535 78.0805 42.5535H76.3415V48.4228H78.0805C78.5551 48.4228 78.964 48.3603 79.2965 48.237C79.6274 48.1147 79.9091 47.9532 80.134 47.7588C80.3524 47.5704 80.529 47.3534 80.6595 47.113C80.7884 46.8743 80.8812 46.6547 80.9428 46.4386C81.0036 46.2155 81.0397 46.0245 81.0545 45.8553C81.0709 45.6973 81.0799 45.5671 81.0799 45.489C81.0799 45.4109 81.0709 45.2781 81.0545 45.121C81.0397 44.9508 81.0036 44.7599 80.9428 44.536V44.5368ZM80.46 45.4899C80.46 45.8891 80.3943 46.2389 80.2654 46.5306C80.1373 46.8205 79.9591 47.0644 79.7358 47.2553C79.5108 47.4437 79.2432 47.586 78.9394 47.6781C78.6331 47.7718 78.2998 47.8187 77.9492 47.8187H76.9598V43.1593H77.9492C78.2998 43.1593 78.6323 43.2062 78.9394 43.2999C79.2432 43.3919 79.5108 43.5343 79.7358 43.7227C79.9591 43.9127 80.1373 44.1566 80.2654 44.4474C80.3943 44.7391 80.46 45.0897 80.46 45.4907V45.4899Z" fill="#FDFFFF"/>
<path d="M84.8176 42.5535H84.1977V48.4228H84.8176V42.5535Z" fill="#FDFFFF"/>
<path d="M90.9671 45.8077H92.2726V47.6469C92.0747 47.7641 91.8555 47.8457 91.6206 47.89C91.3694 47.9394 91.1042 47.9629 90.8078 47.9629C90.4646 47.9629 90.1509 47.8986 89.875 47.7719C89.5918 47.6434 89.3594 47.4725 89.1664 47.2494C88.9702 47.0254 88.8232 46.7685 88.7173 46.4647C88.6114 46.1635 88.558 45.8354 88.558 45.4891C88.558 45.1428 88.6114 44.8112 88.7173 44.51C88.8216 44.2097 88.9727 43.9458 89.1664 43.7262C89.361 43.5049 89.6 43.3287 89.875 43.2037C90.1509 43.077 90.4646 43.0127 90.8078 43.0127C90.9482 43.0127 91.096 43.0301 91.2495 43.064C91.3907 43.0952 91.5369 43.1429 91.6814 43.2063C91.8136 43.2662 91.9392 43.3391 92.064 43.4276C92.1732 43.5101 92.2717 43.6038 92.3563 43.7063L92.3966 43.7557L92.8449 43.2627L92.8063 43.2219C92.3038 42.682 91.6313 42.4086 90.8086 42.4086C90.3841 42.4086 89.9924 42.4867 89.6468 42.6404C89.2921 42.7957 88.9866 43.0119 88.7403 43.2836C88.4907 43.5561 88.2936 43.8833 88.1532 44.2574C88.0128 44.6255 87.9414 45.0404 87.9414 45.4908C87.9414 45.9413 88.0128 46.3554 88.1532 46.726C88.2928 47.1018 88.4907 47.4308 88.7403 47.7025C88.9883 47.9759 89.2937 48.1911 89.6476 48.343C89.9982 48.4932 90.3882 48.5696 90.8094 48.5696C91.16 48.5696 91.5147 48.5305 91.862 48.4524C92.2061 48.3717 92.5427 48.2345 92.8654 48.0444L92.8941 48.0271V45.2018H90.9687V45.8094L90.9671 45.8077Z" fill="#FDFFFF"/>
<path d="M96.9854 42.5535H96.3655V48.4228H96.9854V42.5535Z" fill="#FDFFFF"/>
<path d="M99.8086 43.1585H101.667V48.4228H102.287V43.1585H104.146V42.5535H99.8086V43.1585Z" fill="#FDFFFF"/>
<path d="M108.727 42.5535H108.131L105.74 48.3403L105.706 48.4228H106.359L106.974 46.8943H109.781L110.373 48.4228H111.063L108.742 42.5899L108.727 42.5535ZM109.55 46.2893H107.222L108.405 43.3503L109.55 46.2893Z" fill="#FDFFFF"/>
<path d="M114.42 42.5535H113.801V48.4228H116.954V47.8178H114.42V42.5535Z" fill="#FDFFFF"/>
<path d="M128.923 42.5535H128.304V48.4228H128.923V42.5535Z" fill="#FDFFFF"/>
<path d="M135.073 45.8077H136.379V47.6469C136.181 47.7641 135.963 47.8457 135.727 47.89C135.476 47.9394 135.21 47.9629 134.914 47.9629C134.571 47.9629 134.257 47.8986 133.981 47.7719C133.698 47.6434 133.466 47.4725 133.273 47.2494C133.077 47.0263 132.93 46.7703 132.824 46.4656C132.718 46.1644 132.664 45.8354 132.664 45.4891C132.664 45.1428 132.718 44.8112 132.824 44.51C132.93 44.2045 133.077 43.9484 133.273 43.7262C133.467 43.5049 133.706 43.3287 133.981 43.2037C134.258 43.077 134.572 43.0127 134.914 43.0127C135.055 43.0127 135.203 43.0301 135.356 43.064C135.497 43.0952 135.643 43.1429 135.788 43.2063C135.92 43.2662 136.046 43.3391 136.17 43.4276C136.281 43.5101 136.38 43.6047 136.463 43.7063L136.503 43.7557L136.951 43.2627L136.913 43.2219C136.409 42.682 135.738 42.4086 134.914 42.4086C134.49 42.4086 134.099 42.4867 133.752 42.6404C133.398 42.7957 133.092 43.0119 132.846 43.2836C132.596 43.5552 132.399 43.8833 132.259 44.2574C132.118 44.6255 132.047 45.0404 132.047 45.4908C132.047 45.9413 132.118 46.3554 132.259 46.726C132.398 47.1027 132.596 47.4308 132.846 47.7025C133.094 47.9759 133.399 48.1911 133.753 48.343C134.104 48.4932 134.494 48.5696 134.914 48.5696C135.266 48.5696 135.619 48.5305 135.968 48.4524C136.311 48.3717 136.648 48.2345 136.97 48.0444L136.999 48.0271V45.2018H135.073V45.8094V45.8077Z" fill="#FDFFFF"/>
<path d="M141.093 42.5535H140.473V48.4228H143.626V47.8178H141.093V42.5535Z" fill="#FDFFFF"/>
<path d="M150.992 43.2828C150.745 43.0111 150.44 42.795 150.085 42.6396C149.739 42.4859 149.347 42.4078 148.924 42.4078C148.5 42.4078 148.107 42.4859 147.762 42.6396C147.407 42.795 147.102 43.0111 146.855 43.2828C146.606 43.5536 146.409 43.8817 146.268 44.2566C146.128 44.6264 146.056 45.0413 146.056 45.4901C146.056 45.9388 146.128 46.3537 146.268 46.7252C146.409 47.1019 146.606 47.4309 146.855 47.7017C147.103 47.9751 147.409 48.1903 147.763 48.3422C148.113 48.4924 148.503 48.5688 148.924 48.5688C149.346 48.5688 149.736 48.4924 150.085 48.3422C150.439 48.1903 150.745 47.9751 150.993 47.7017C151.242 47.43 151.44 47.1019 151.58 46.7261C151.72 46.3546 151.792 45.9388 151.792 45.4901C151.792 45.0413 151.72 44.6255 151.58 44.2575C151.439 43.8834 151.242 43.5553 150.993 43.2836L150.992 43.2828ZM151.173 45.4892C151.173 45.8364 151.12 46.1653 151.014 46.4657C150.908 46.7703 150.761 47.0264 150.565 47.2495C150.371 47.4725 150.14 47.6426 149.856 47.772C149.58 47.8987 149.266 47.9629 148.924 47.9629C148.581 47.9629 148.267 47.8987 147.991 47.772C147.711 47.6444 147.473 47.4691 147.282 47.2495C147.086 47.0255 146.939 46.7695 146.833 46.4657C146.727 46.1645 146.674 45.8355 146.674 45.4892C146.674 45.1429 146.727 44.8113 146.833 44.5101C146.937 44.2098 147.088 43.9459 147.282 43.7263C147.476 43.505 147.715 43.3296 147.991 43.2038C148.267 43.077 148.58 43.0128 148.924 43.0128C149.267 43.0128 149.58 43.077 149.856 43.2038C150.131 43.3288 150.37 43.505 150.565 43.7263C150.76 43.9485 150.907 44.2046 151.014 44.511C151.12 44.8113 151.173 45.1403 151.173 45.4892Z" fill="#FDFFFF"/>
<path d="M160.084 44.2566C159.944 43.8825 159.747 43.5544 159.497 43.2828C159.25 43.0111 158.945 42.795 158.591 42.6396C158.244 42.4859 157.853 42.4078 157.429 42.4078C157.005 42.4078 156.613 42.4859 156.267 42.6396C155.912 42.795 155.607 43.0111 155.361 43.2828C155.112 43.5536 154.915 43.8817 154.774 44.2566C154.633 44.6264 154.562 45.0413 154.562 45.4901C154.562 45.9388 154.633 46.3537 154.774 46.7252C154.914 47.1019 155.112 47.4309 155.361 47.7017C155.609 47.9751 155.914 48.1903 156.268 48.3422C156.619 48.4924 157.009 48.5688 157.43 48.5688C157.851 48.5688 158.241 48.4924 158.591 48.3422C158.945 48.1903 159.25 47.9751 159.498 47.7017C159.748 47.43 159.946 47.1019 160.085 46.7261C160.226 46.3546 160.297 45.9388 160.297 45.4901C160.297 45.0413 160.226 44.6255 160.085 44.2575L160.084 44.2566ZM159.679 45.4892C159.679 45.8364 159.625 46.1653 159.519 46.4657C159.413 46.7703 159.267 47.0264 159.07 47.2495C158.877 47.4725 158.645 47.6426 158.362 47.772C158.085 47.8987 157.771 47.9629 157.429 47.9629C157.087 47.9629 156.772 47.8987 156.496 47.772C156.212 47.6435 155.981 47.4725 155.787 47.2495C155.591 47.0264 155.444 46.7703 155.338 46.4657C155.232 46.1645 155.178 45.8355 155.178 45.4892C155.178 45.1429 155.232 44.8113 155.338 44.5101C155.444 44.2046 155.591 43.9485 155.787 43.7263C155.981 43.505 156.22 43.3288 156.496 43.2038C156.772 43.077 157.086 43.0128 157.429 43.0128C157.772 43.0128 158.086 43.077 158.362 43.2038C158.637 43.3288 158.876 43.505 159.07 43.7263C159.266 43.9485 159.413 44.2046 159.519 44.511C159.625 44.8113 159.679 45.1403 159.679 45.4892Z" fill="#FDFFFF"/>
<path d="M138.251 29.9572H137.814C137.23 29.9546 136.728 29.7914 136.31 29.4625C135.888 29.1309 135.677 28.7255 135.677 28.249V11.1732C135.678 11.1419 135.686 11.1115 135.686 11.0794V9.23755C135.686 8.50757 135.121 7.9104 134.43 7.9104C133.74 7.9104 133.175 8.50757 133.175 9.23755V11.0794V28.249C133.175 28.8497 133.297 29.4147 133.542 29.9442C133.789 30.4737 134.122 30.9372 134.544 31.3304C134.819 31.5882 135.135 31.7973 135.469 31.9839C135.647 32.0838 135.823 32.1862 136.018 32.2652C136.56 32.4865 137.147 32.5959 137.772 32.602H138.251C138.94 32.602 139.503 32.0065 139.503 31.28C139.503 30.5535 138.94 29.9572 138.251 29.9572H138.251Z" fill="#FDFFFF"/>
<path d="M152.681 18.7507C151.984 18.0233 151.168 17.4479 150.235 17.0226C149.303 16.5973 148.306 16.3837 147.246 16.3837C146.186 16.3837 145.194 16.5964 144.271 17.0226C143.348 17.4479 142.538 18.0233 141.841 18.7507C141.143 19.4781 140.594 20.3374 140.191 21.3356C139.789 22.3312 139.587 23.391 139.587 24.5107C139.587 25.6304 139.788 26.685 140.191 27.671C140.594 28.657 141.143 29.5129 141.841 30.2402C142.538 30.9676 143.348 31.5431 144.271 31.9684C145.194 32.3937 146.187 32.6072 147.246 32.6072C148.305 32.6072 149.303 32.3946 150.235 31.9684C151.168 31.5431 151.983 30.9676 152.681 30.2402C153.379 29.5129 153.927 28.6562 154.33 27.671C154.732 26.685 154.934 25.6312 154.934 24.5107C154.934 23.3901 154.733 22.3312 154.33 21.3356C153.928 20.3374 153.379 19.4781 152.681 18.7507ZM152.002 26.6294C151.739 27.2934 151.369 27.8689 150.9 28.3576C150.428 28.8445 149.878 29.2342 149.248 29.5233C148.62 29.8149 147.954 29.959 147.246 29.959C146.538 29.959 145.87 29.8149 145.242 29.5233C144.614 29.2342 144.064 28.8445 143.592 28.3576C143.122 27.8689 142.753 27.2934 142.487 26.6294C142.223 25.9654 142.089 25.2589 142.089 24.5107C142.089 23.7625 142.223 23.0585 142.487 22.3919C142.753 21.7279 143.122 21.1481 143.592 20.6481C144.064 20.1516 144.614 19.7611 145.242 19.4798C145.87 19.2012 146.538 19.0615 147.246 19.0615C147.954 19.0615 148.62 19.2012 149.248 19.4798C149.878 19.7611 150.428 20.1516 150.9 20.6481C151.369 21.1472 151.739 21.7279 152.002 22.3919C152.268 23.0585 152.401 23.7625 152.401 24.5107C152.401 25.2589 152.268 25.9654 152.002 26.6294Z" fill="#FDFFFF"/>
<path d="M171.164 21.3356C170.761 20.3374 170.212 19.4781 169.514 18.7507C168.817 18.0233 168.002 17.4479 167.069 17.0226C166.136 16.5973 165.139 16.3837 164.079 16.3837C163.019 16.3837 162.028 16.5964 161.105 17.0226C160.182 17.4479 159.371 18.0233 158.674 18.7507C157.977 19.4781 157.428 20.3374 157.025 21.3356C156.622 22.3312 156.421 23.391 156.421 24.5107C156.421 25.6304 156.622 26.685 157.025 27.671C157.427 28.657 157.976 29.5129 158.674 30.2402C159.372 30.9676 160.182 31.5431 161.105 31.9684C162.028 32.3937 163.02 32.6072 164.079 32.6072C165.139 32.6072 166.136 32.3946 167.069 31.9684C168.002 31.5431 168.816 30.9676 169.514 30.2402C170.211 29.5129 170.761 28.6562 171.164 27.671C171.566 26.685 171.768 25.6312 171.768 24.5107C171.768 23.3901 171.567 22.3312 171.164 21.3356ZM168.836 26.6294C168.572 27.2934 168.203 27.8689 167.733 28.3576C167.261 28.8445 166.712 29.2342 166.081 29.5233C165.453 29.8149 164.787 29.959 164.079 29.959C163.372 29.959 162.703 29.8149 162.075 29.5233C161.447 29.2342 160.898 28.8445 160.426 28.3576C159.956 27.8689 159.587 27.2934 159.321 26.6294C159.057 25.9654 158.922 25.2589 158.922 24.5107C158.922 23.7625 159.057 23.0585 159.321 22.3919C159.587 21.7279 159.956 21.1481 160.426 20.6481C160.898 20.1516 161.447 19.7611 162.075 19.4798C162.703 19.2012 163.372 19.0615 164.079 19.0615C164.787 19.0615 165.453 19.2012 166.081 19.4798C166.712 19.7611 167.261 20.1516 167.733 20.6481C168.203 21.1472 168.572 21.7279 168.836 22.3919C169.102 23.0585 169.234 23.7625 169.234 24.5107C169.234 25.2589 169.102 25.9654 168.836 26.6294Z" fill="#FDFFFF"/>
<path d="M80.1856 9.23755C80.1856 8.50757 79.6207 7.9104 78.9302 7.9104C78.2397 7.9104 77.6748 8.50757 77.6748 9.23755V9.89721C77.6748 9.92238 77.6805 9.94495 77.6814 9.96926V18.4391C76.9958 17.795 76.2141 17.2864 75.3421 16.9131C74.4669 16.5382 73.53 16.3533 72.5283 16.3533C71.4691 16.3533 70.4764 16.5659 69.5536 16.9895C68.6307 17.4148 67.8203 17.9981 67.1232 18.7359C66.4253 19.4711 65.8768 20.3321 65.4736 21.3182C65.0713 22.3068 64.8693 23.3579 64.8693 24.4802C64.8693 25.6025 65.0705 26.6545 65.4736 27.6406C65.876 28.6266 66.4253 29.4824 67.1232 30.2098C67.8203 30.9372 68.6307 31.5126 69.5536 31.9379C70.4764 32.3615 71.4691 32.5768 72.5283 32.5768C73.5875 32.5768 74.5851 32.3615 75.5178 31.9379C76.4506 31.5126 77.2602 30.9372 77.9482 30.2098C78.6363 29.4824 79.1806 28.6257 79.583 27.6406C79.9853 26.6545 80.1873 25.6008 80.1873 24.4802V10.6532V9.23755H80.1856ZM77.2856 26.5964C77.0196 27.263 76.6501 27.8385 76.1804 28.3245C75.7083 28.8132 75.159 29.2012 74.5317 29.4928C73.9011 29.7845 73.2352 29.9286 72.5275 29.9286C71.8197 29.9286 71.1538 29.7845 70.5232 29.4928C69.8951 29.2012 69.3507 28.8141 68.8885 28.3245C68.4287 27.8376 68.0592 27.263 67.7858 26.5964C67.5099 25.9324 67.3736 25.2284 67.3736 24.4802C67.3736 23.732 67.5099 23.0255 67.7858 22.3615C68.0592 21.6975 68.4279 21.1176 68.8885 20.6177C69.3516 20.1186 69.8951 19.7306 70.5232 19.4494C71.1538 19.1708 71.8197 19.0284 72.5275 19.0284C73.2352 19.0284 73.9011 19.1708 74.5317 19.4494C75.1598 19.7306 75.7083 20.1186 76.1804 20.6177C76.6501 21.1168 77.0196 21.6975 77.2856 22.3615C77.5492 23.0255 77.6814 23.732 77.6814 24.4802C77.6814 25.2284 77.5492 25.9324 77.2856 26.5964Z" fill="#FDFFFF"/>
<path d="M96.7526 21.7355C96.3503 20.7399 95.8059 19.878 95.1179 19.1506C94.4323 18.4258 93.6219 17.8478 92.69 17.4225C91.7572 16.9997 90.7604 16.7845 89.698 16.7845C88.6355 16.7845 87.6412 16.9997 86.7084 17.4225C85.7757 17.8486 84.9612 18.4258 84.2633 19.1506C83.5662 19.878 83.0169 20.739 82.6146 21.7355C82.2114 22.731 82.0103 23.7909 82.0103 24.9132C82.0103 25.6822 82.1121 26.4156 82.3026 27.117C82.2993 27.1152 82.296 27.1144 82.2927 27.1126C82.3001 27.1361 82.3132 27.1664 82.3206 27.1908C82.4035 27.485 82.4988 27.7758 82.6154 28.0587C82.7279 28.3322 82.8798 28.5735 83.0152 28.8278C83.3691 29.5204 83.7764 30.1636 84.2904 30.7061C84.976 31.4309 85.7864 32.0089 86.7183 32.4342C87.651 32.857 88.6478 33.0722 89.7103 33.0722C90.7728 33.0722 91.7654 32.9012 92.6793 32.436C92.8969 32.3257 93.0915 32.206 93.3033 32.0871C93.3879 32.0393 93.7385 31.8379 93.7385 31.8379C93.9487 31.7008 94.1457 31.5472 94.3403 31.3909L94.9914 30.9075C95.5563 30.4874 95.6935 29.655 95.2969 29.0578C94.9003 28.4606 94.1129 28.3157 93.548 28.7349L92.6292 29.4171C92.6292 29.4171 92.6267 29.4154 92.6251 29.4137C92.2597 29.6819 91.8689 29.9136 91.4321 30.0811C91.2982 30.1324 91.1562 30.1584 91.0183 30.1974C90.4599 30.2999 89.9353 30.3606 89.6996 30.3606C89.0912 30.3606 88.5181 30.2565 87.9786 30.049C87.4367 29.8416 86.9507 29.5499 86.5188 29.1776C86.0877 28.8052 85.7133 28.3695 85.3988 27.8695C85.0852 27.3704 84.8594 26.8201 84.7231 26.2203L96.3093 26.3011C96.3093 26.3011 96.549 26.2967 96.9242 25.9001C97.1903 25.6188 97.3019 24.8646 97.3381 24.6285C97.3791 24.3568 97.3594 24.1606 97.3594 24.0712C97.3594 23.4376 97.1566 22.731 96.7535 21.7355H96.7526ZM84.7214 23.573C84.8586 22.9923 85.0835 22.4481 85.3972 21.9386C85.7117 21.4291 86.0852 20.9933 86.5171 20.6305C86.949 20.2677 87.4351 19.9821 87.977 19.7738C88.5164 19.5664 89.0896 19.4622 89.698 19.4622C90.3064 19.4622 90.882 19.5664 91.4214 19.7738C91.9633 19.9813 92.4469 20.2677 92.8813 20.6305C93.3132 20.9925 93.6794 21.4291 93.984 21.9386C94.2886 22.4481 94.5185 22.9923 94.677 23.573H84.7223H84.7214Z" fill="#FDFFFF"/>
<path d="M128.735 18.8113C128.038 18.0865 127.223 17.5084 126.29 17.0831C125.358 16.6595 124.363 16.4443 123.301 16.4443C122.238 16.4443 121.249 16.6595 120.326 17.0831C119.403 17.5084 118.593 18.0865 117.896 18.8113C117.198 19.5386 116.649 20.3997 116.246 21.3961C115.844 22.3917 115.642 23.4515 115.642 24.5738C115.642 25.6961 115.843 26.7429 116.246 27.7185C116.648 28.6941 117.198 29.5508 117.896 30.2852C118.593 31.0229 119.403 31.6054 120.326 32.0307C121.249 32.4542 122.242 32.6669 123.301 32.6669C123.773 32.6669 124.209 32.7606 124.612 32.9481C125.014 33.1356 125.371 33.3943 125.686 33.7258C126 34.0574 126.247 34.4376 126.424 34.8638C126.599 35.2891 126.688 35.7509 126.688 36.2499C126.688 36.749 126.584 37.2082 126.378 37.6335C126.172 38.0588 125.894 38.439 125.539 38.7714C125.187 39.103 124.767 39.3617 124.288 39.5492C123.806 39.7366 123.3 39.8304 122.77 39.8304V39.8391C122.738 39.8365 122.707 39.8286 122.674 39.8286H120.932C120.241 39.8286 119.677 40.4258 119.677 41.1558C119.677 41.8858 120.241 42.4829 120.932 42.4829H122.674C122.707 42.4829 122.738 42.4751 122.77 42.4725V42.4751C123.655 42.4751 124.484 42.3102 125.258 41.9786C126.035 41.6445 126.718 41.1983 127.305 40.6385C127.895 40.0786 128.355 39.4198 128.69 38.6621C129.024 37.9043 129.191 37.0988 129.191 36.2499C129.191 35.3351 129.004 34.4688 128.63 33.6503C128.258 32.8292 127.786 32.1296 127.216 31.5472C128.377 30.8424 129.295 29.8772 129.97 28.6507C130.649 27.4269 130.987 26.0659 130.987 24.5738C130.987 23.4515 130.786 22.3917 130.383 21.3961C129.979 20.4005 129.431 19.5386 128.733 18.8113H128.735ZM128.06 26.69C127.794 27.354 127.429 27.932 126.969 28.4181C126.507 28.9068 125.963 29.2948 125.335 29.5864C124.706 29.8781 124.028 30.0222 123.302 30.0222C122.575 30.0222 121.928 29.8781 121.3 29.5864C120.669 29.2948 120.126 28.9077 119.665 28.4181C119.203 27.9312 118.833 27.354 118.56 26.69C118.284 26.026 118.148 25.3194 118.148 24.5738C118.148 23.8282 118.284 23.1191 118.56 22.4551C118.833 21.7911 119.202 21.2086 119.665 20.7113C120.126 20.2122 120.669 19.8242 121.3 19.543C121.928 19.2617 122.595 19.122 123.302 19.122C124.008 19.122 124.706 19.2617 125.335 19.543C125.963 19.8242 126.507 20.2122 126.969 20.7113C127.429 21.2078 127.794 21.7911 128.06 22.4551C128.323 23.1191 128.458 23.8256 128.458 24.5738C128.458 25.322 128.323 26.026 128.06 26.69Z" fill="#FDFFFF"/>
<path d="M113.598 21.5622C113.196 20.5666 112.651 19.7047 111.963 18.9773C111.278 18.2526 110.467 17.6745 109.535 17.2492C108.603 16.8265 107.606 16.6112 106.543 16.6112C105.481 16.6112 104.487 16.8265 103.554 17.2492C102.621 17.6754 101.807 18.2526 101.109 18.9773C100.412 19.7047 99.8623 20.5657 99.4592 21.5622C99.0568 22.5578 98.8549 23.6176 98.8549 24.7399C98.8549 25.5089 98.9567 26.2424 99.1472 26.9437C99.1439 26.942 99.1406 26.9411 99.1373 26.9394C99.1447 26.9628 99.1578 26.9932 99.1652 27.0175C99.2482 27.3126 99.3426 27.6025 99.4592 27.8855C99.5717 28.1589 99.7236 28.4002 99.859 28.6545C100.213 29.3471 100.62 29.9903 101.134 30.5328C101.82 31.2576 102.63 31.8357 103.562 32.261C104.495 32.6845 105.492 32.8998 106.553 32.8998C107.615 32.8998 108.608 32.7288 109.522 32.2636C109.74 32.1533 109.934 32.0336 110.145 31.9146C110.23 31.8669 110.581 31.6655 110.581 31.6655C110.791 31.5284 110.988 31.3748 111.182 31.2185L111.834 30.735C112.398 30.3149 112.536 29.4825 112.139 28.8854C111.742 28.2882 110.955 28.1432 110.39 28.5625L109.471 29.2447C109.471 29.2447 109.469 29.243 109.467 29.2421C109.102 29.5103 108.711 29.7421 108.274 29.9096C108.14 29.9608 107.998 29.9868 107.86 30.0259C107.302 30.1283 106.777 30.1891 106.542 30.1891C105.933 30.1891 105.36 30.0849 104.821 29.8775C104.279 29.67 103.793 29.3784 103.361 29.006C102.93 28.6337 102.555 28.1979 102.242 27.698C101.928 27.1989 101.702 26.6486 101.566 26.0488L113.152 26.1295C113.152 26.1295 113.392 26.1252 113.767 25.7285C114.033 25.4473 114.145 24.693 114.181 24.4569C114.222 24.1852 114.202 23.9891 114.202 23.8997C114.202 23.266 114 22.5595 113.596 21.5631L113.598 21.5622ZM101.567 23.3997C101.704 22.819 101.929 22.2748 102.243 21.7653C102.556 21.2558 102.931 20.8201 103.362 20.4572C103.794 20.0953 104.28 19.8089 104.822 19.6005C105.361 19.3931 105.934 19.2889 106.543 19.2889C107.151 19.2889 107.727 19.3931 108.266 19.6005C108.808 19.808 109.292 20.0944 109.726 20.4572C110.158 20.8201 110.524 21.2558 110.829 21.7653C111.133 22.2748 111.363 22.819 111.522 23.3997H101.566H101.567Z" fill="#FDFFFF"/>
<path d="M4.11458 7.25592C4.65895 9.48404 5.3971 10.2644 7.5048 10.8398C5.3971 11.4153 4.65895 12.1939 4.11458 14.422C3.57185 12.1939 2.83206 11.4136 0.724365 10.8398C2.83206 10.2644 3.57185 9.48404 4.11458 7.25592Z" fill="#2FB9D9"/>
<path d="M4.83777 14.6149L4.48799 13.1793C3.97893 11.0909 3.3352 10.4104 1.35806 9.87226L0 9.5025L1.35806 9.131C3.33603 8.59025 3.97975 7.90975 4.48881 5.82224L4.83859 4.3866L5.18919 5.82224C5.6999 7.91148 6.34362 8.59111 8.31912 9.13187L9.67472 9.5025L8.31912 9.87313C6.3428 10.413 5.69908 11.0926 5.18919 13.1802L4.83859 14.6158L4.83777 14.6149ZM2.6299 9.50076C3.7441 9.97729 4.38782 10.6578 4.83859 11.8339C5.29018 10.6578 5.9339 9.97815 7.04728 9.50076C5.9339 9.02337 5.29018 8.34287 4.83859 7.16588C4.38782 8.342 3.7441 9.02337 2.6299 9.50076Z" fill="#FDFFFF"/>
<path d="M13.6651 39.5594H12.8112C12.4507 39.5594 12.1592 39.9275 12.1592 40.3814C12.1592 40.8354 12.4507 41.2034 12.8112 41.2034H13.6651C14.0247 41.2034 14.317 40.8354 14.317 40.3814C14.317 39.9275 14.0247 39.5594 13.6651 39.5594Z" fill="#2FB9D9"/>
<path d="M44.2136 40.4018C44.2136 32.5786 38.1927 26.2137 30.7924 26.2137C27.2798 26.2137 23.9561 27.6441 21.4338 30.242C21.1259 30.5588 21.1201 31.0787 21.419 31.4042C21.4247 31.4103 21.4305 31.4146 21.4354 31.4199C21.7367 31.728 22.2162 31.7306 22.5184 31.419C24.7493 29.1223 27.6871 27.8568 30.7915 27.8568C37.3347 27.8568 42.6577 33.4839 42.6577 40.4V48.3534H39.0286V40.4C39.0286 35.5992 35.3337 31.6933 30.7915 31.6933C26.2494 31.6933 22.5545 35.5992 22.5545 40.4V48.3534H18.9262V40.4C18.9262 38.0738 19.3006 36.4229 20.4542 34.4474C20.6759 34.0689 20.57 33.5742 20.221 33.3303C20.2145 33.3251 20.2087 33.3207 20.2021 33.3155C19.8368 33.0768 19.3581 33.1966 19.1315 33.5829C17.8251 35.8171 17.3703 37.7674 17.3703 40.3992V48.3525H17.3678V49.9965H24.1105V48.3022H37.4734V49.9965H44.2161V48.3525H44.2136V40.4V40.4018Z" fill="#2FB9D9"/>
<path d="M48.0225 19.291C43.7726 14.7983 38.2295 12.1726 32.28 11.7959V1.36621C32.28 0.611929 32.2546 0 31.6133 0C30.8867 0 30.9466 0.611929 30.9466 1.36621V11.7603H30.0147C23.7975 11.9652 17.981 14.6195 13.562 19.2901C8.95989 24.1551 6.42523 30.6242 6.42523 37.5047V49.1765C6.42523 49.6305 6.77337 49.9985 7.20279 49.9985H11.6883C11.7006 49.9985 11.7121 49.9985 11.7244 49.9985H13.6983C14.5309 49.9985 15.2058 50.0723 15.2058 49.1765C15.2058 48.3858 14.5309 48.3546 13.6983 48.3546H11.7244C11.7121 48.3546 11.7006 48.3546 11.6883 48.3554H7.98035V39.14C8.0485 39.1452 8.11747 39.1487 8.18808 39.1487H10.1619C10.9945 39.1487 11.6694 39.1175 11.6694 38.3267C11.6694 37.431 10.9945 37.5047 10.1619 37.5047H8.18808C8.11747 37.5047 8.0485 37.5082 7.98035 37.5134V37.5047C7.98035 29.5653 11.63 22.5094 17.2478 18.1131C17.3439 18.8023 17.9753 18.7415 18.7413 18.7415H20.7152C21.547 18.7415 22.2227 18.3735 22.2227 17.9195C22.2227 17.4656 21.5478 17.0976 20.7152 17.0976H18.7413C18.711 17.0976 18.6822 17.0976 18.6527 17.0976C22.171 14.7505 26.3338 13.3895 30.7923 13.3895C41.7881 13.3895 50.9915 21.6571 53.1337 32.6206H51.2863C50.4537 32.6206 49.7788 32.6518 49.7788 33.4426C49.7788 34.3383 50.4537 34.2646 51.2863 34.2646H53.2601C53.3061 34.2646 53.3513 34.2628 53.3964 34.2611C53.5319 35.3218 53.6033 36.4041 53.6033 37.5039V48.3537H49.778V48.3667C49.2024 48.4049 48.791 48.5594 48.791 49.1757C48.791 49.8744 49.2024 49.9829 49.778 49.9968H49.8124C49.9652 50.0003 50.1277 49.9968 50.2977 49.9968H54.3801C54.8095 49.9968 55.1576 49.6288 55.1576 49.1748V37.503C55.1576 30.6225 52.623 24.1534 48.0209 19.2884L48.0225 19.291Z" fill="#2FB9D9"/>
<path d="M48.1111 32.6389H47.0921C46.6619 32.6389 46.3146 33.0069 46.3146 33.4609C46.3146 33.9149 46.6627 34.2829 47.0921 34.2829H48.1111C48.5405 34.2829 48.8886 33.9149 48.8886 33.4609C48.8886 33.0069 48.5405 32.6389 48.1111 32.6389Z" fill="#2FB9D9"/>
<path d="M45.3655 25.8778H44.3465C43.9163 25.8778 43.569 26.2458 43.569 26.6998C43.569 27.1537 43.9171 27.5218 44.3465 27.5218H45.3655C45.7949 27.5218 46.143 27.1537 46.143 26.6998C46.143 26.2458 45.7949 25.8778 45.3655 25.8778Z" fill="#2FB9D9"/>
<path d="M25.4255 18.7422C25.855 18.7422 26.2031 18.3741 26.2031 17.9202C26.2031 17.4662 25.855 17.0982 25.4255 17.0982H24.4066C23.9763 17.0982 23.629 17.4662 23.629 17.9202C23.629 18.3741 23.9772 18.7422 24.4066 18.7422H25.4255Z" fill="#2FB9D9"/>
<path d="M28.5402 18.7418H30.5149C31.3466 18.7418 32.0224 18.3738 32.0224 17.9198C32.0224 17.4659 31.3475 17.0978 30.5149 17.0978H28.5402C27.7076 17.0978 27.0327 17.1291 27.0327 17.9198C27.0327 18.8156 27.7076 18.7418 28.5402 18.7418Z" fill="#2FB9D9"/>
<path d="M33.5607 7.34769H35.5034V9.09147C35.5034 9.41263 35.7497 9.67302 36.0535 9.67302H43.4514C43.6575 9.67302 43.8463 9.55151 43.9399 9.35795C44.0343 9.16439 44.0179 8.93177 43.8988 8.75383L42.6598 6.91544L43.8988 5.07618C44.0179 4.89911 44.0343 4.66562 43.9399 4.47206C43.8455 4.2785 43.6575 4.15698 43.4514 4.15698H38.1349V2.41407C38.1349 2.09291 37.8886 1.83252 37.5848 1.83252H33.5599C33.2561 1.83252 33.0098 2.09291 33.0098 2.41407V6.76614C33.0098 7.0873 33.2561 7.34769 33.5599 7.34769H33.5607ZM38.1357 6.76614V5.32095H42.3848L41.5374 6.57866C41.4011 6.7809 41.4011 7.05171 41.5374 7.25308L42.3848 8.51079H36.6036V7.34769H37.5856C37.8894 7.34769 38.1357 7.0873 38.1357 6.76614ZM34.1108 2.99562H37.0363V6.18546H34.1108V2.99562Z" fill="#2FB9D9"/>
</svg>
